<svg width="17" height="24" viewBox="0 0 17 24" fill="none" xmlns="http://www.w3.org/2000/svg">
<path d="M8.25 0C9.00781 0 9.73828 0.0976562 10.4414 0.292969C11.1445 0.488281 11.8008 0.765625 12.4102 1.125C13.0273 1.48438 13.5859 1.91406 14.0859 2.41406C14.5859 2.91406 15.0156 3.47266 15.375 4.08984C15.7344 4.69922 16.0117 5.35547 16.207 6.05859C16.4023 6.76172 16.5 7.49219 16.5 8.25C16.5 9.38281 16.2852 10.4336 15.8555 11.4023C15.4258 12.3711 14.8125 13.25 14.0156 14.0391C13.3672 14.6797 12.8672 15.3945 12.5156 16.1836C12.1719 16.9727 12 17.8281 12 18.75V21.75C12 22.0625 11.9414 22.3555 11.8242 22.6289C11.707 22.9023 11.5469 23.1406 11.3438 23.3438C11.1406 23.5469 10.9023 23.707 10.6289 23.8242C10.3555 23.9414 10.0625 24 9.75 24H6.75C6.4375 24 6.14453 23.9414 5.87109 23.8242C5.59766 23.707 5.35938 23.5469 5.15625 23.3438C4.95312 23.1406 4.79297 22.9023 4.67578 22.6289C4.55859 22.3555 4.5 22.0625 4.5 21.75V18.75C4.5 17.8281 4.32422 16.9727 3.97266 16.1836C3.62891 15.3945 3.13281 14.6797 2.48438 14.0391C1.6875 13.25 1.07422 12.3711 0.644531 11.4023C0.214844 10.4336 0 9.38281 0 8.25C0 7.49219 0.0976562 6.76172 0.292969 6.05859C0.488281 5.35547 0.765625 4.69922 1.125 4.08984C1.48438 3.47266 1.91406 2.91406 2.41406 2.41406C2.91406 1.91406 3.46875 1.48438 4.07812 1.125C4.69531 0.765625 5.35547 0.488281 6.05859 0.292969C6.76172 0.0976562 7.49219 0 8.25 0ZM9.75 22.5C9.95312 22.5 10.1289 22.4258 10.2773 22.2773C10.4258 22.1289 10.5 21.9531 10.5 21.75V19.5H6V21.75C6 21.9531 6.07422 22.1289 6.22266 22.2773C6.37109 22.4258 6.54688 22.5 6.75 22.5H9.75ZM10.5352 18C10.6367 16.9922 10.8945 16.0781 11.3086 15.2578C11.7227 14.4375 12.2812 13.6719 12.9844 12.9609C13.6328 12.3047 14.1289 11.5898 14.4727 10.8164C14.8242 10.0352 15 9.17969 15 8.25C15 7.32031 14.8203 6.44531 14.4609 5.625C14.1094 4.80469 13.6289 4.08984 13.0195 3.48047C12.4102 2.87109 11.6953 2.39062 10.875 2.03906C10.0547 1.67969 9.17969 1.5 8.25 1.5C7.32031 1.5 6.44531 1.67969 5.625 2.03906C4.80469 2.39062 4.08984 2.87109 3.48047 3.48047C2.87109 4.08984 2.38672 4.80469 2.02734 5.625C1.67578 6.44531 1.5 7.32031 1.5 8.25C1.5 9.17969 1.67188 10.0352 2.01562 10.8164C2.36719 11.5898 2.86719 12.3047 3.51562 12.9609C4.21875 13.6719 4.77734 14.4375 5.19141 15.2578C5.60547 16.0781 5.86328 16.9922 5.96484 18H10.5352Z" fill="white"/>
</svg>
