<svg width="24" height="21" viewBox="0 0 24 21" fill="none" xmlns="http://www.w3.org/2000/svg">
<path d="M21.75 7.5C22.0547 7.5 22.3438 7.55859 22.6172 7.67578C22.8906 7.79297 23.1289 7.95313 23.332 8.15625C23.543 8.35938 23.707 8.59766 23.8242 8.87109C23.9414 9.14453 24 9.4375 24 9.75C24 10 23.9609 10.2383 23.8828 10.4648L20.8828 19.4648C20.8047 19.6914 20.6953 19.9023 20.5547 20.0977C20.4141 20.2852 20.25 20.4453 20.0625 20.5781C19.875 20.7109 19.668 20.8164 19.4414 20.8945C19.2227 20.9648 18.9922 21 18.75 21H12.75C11.3516 21 10.0039 20.7305 8.70703 20.1914C8.14453 19.9648 7.57812 19.793 7.00781 19.6758C6.44531 19.5586 5.85938 19.5 5.25 19.5H0V9H4.88672C5.39453 9 5.87109 8.90625 6.31641 8.71875C6.76953 8.53125 7.17578 8.25781 7.53516 7.89844L14.8242 0.621094C15.0195 0.425781 15.2148 0.273437 15.4102 0.164062C15.6055 0.0546875 15.8438 0 16.125 0C16.3828 0 16.625 0.0507812 16.8516 0.152344C17.0781 0.246094 17.2773 0.378906 17.4492 0.550781C17.6211 0.722656 17.7539 0.921875 17.8477 1.14844C17.9492 1.375 18 1.61719 18 1.875C18 2.50781 17.9297 3.11328 17.7891 3.69141C17.6484 4.26172 17.4414 4.82812 17.168 5.39062C17.0117 5.72656 16.8789 6.07031 16.7695 6.42188C16.6602 6.76562 16.5859 7.125 16.5469 7.5H21.75ZM18.75 19.5C18.9062 19.5 19.0508 19.4531 19.1836 19.3594C19.3164 19.2656 19.4102 19.1406 19.4648 18.9844C19.5039 18.875 19.5742 18.6641 19.6758 18.3516C19.7852 18.0391 19.9141 17.6641 20.0625 17.2266C20.2109 16.7812 20.375 16.2969 20.5547 15.7734C20.7344 15.2422 20.9141 14.707 21.0938 14.168C21.2734 13.6289 21.4453 13.1055 21.6094 12.5977C21.7812 12.082 21.9336 11.6211 22.0664 11.2148C22.1992 10.8008 22.3047 10.4648 22.3828 10.207C22.4609 9.94141 22.5 9.78906 22.5 9.75C22.5 9.54688 22.4258 9.37109 22.2773 9.22266C22.1289 9.07422 21.9531 9 21.75 9H15C15 8.58594 15.0078 8.20312 15.0234 7.85156C15.0469 7.49219 15.0859 7.14453 15.1406 6.80859C15.2031 6.47266 15.2891 6.13672 15.3984 5.80078C15.5078 5.46484 15.6523 5.10938 15.832 4.73438C16.0508 4.28125 16.2148 3.82031 16.3242 3.35156C16.4414 2.875 16.5 2.38281 16.5 1.875C16.5 1.76563 16.4648 1.67578 16.3945 1.60547C16.3242 1.53516 16.2344 1.5 16.125 1.5C16.0781 1.5 16.0352 1.51953 15.9961 1.55859C15.9648 1.58984 15.9336 1.62109 15.9023 1.65234L8.60156 8.96484C8.35156 9.21484 8.08203 9.43359 7.79297 9.62109C7.51172 9.80859 7.21094 9.96875 6.89062 10.1016C6.26562 10.3672 5.59766 10.5 4.88672 10.5H1.5V18H5.25C6.64062 18 7.98828 18.2695 9.29297 18.8086C10.418 19.2695 11.5703 19.5 12.75 19.5H18.75Z" fill="white"/>
</svg>
