<svg width="500" height="500" viewBox="0 0 500 500" fill="none" xmlns="http://www.w3.org/2000/svg">
<circle cx="250" cy="250" r="250" fill="#DFD4C6"/>
<path d="M279.5 164.5H192.062C176.125 164.5 144.25 175.125 144.25 207C144.25 238.875 176.125 249.5 192.062 249.5H308.938C324.875 249.5 356.75 260.125 356.75 292C356.75 323.875 324.875 334.5 308.938 334.5H220.5" stroke="#2E2B2B" stroke-width="32" stroke-linecap="round" stroke-linejoin="round"/>
<path d="M323.5 205C334.241 205 344.543 200.733 352.138 193.138C359.733 185.543 364 175.241 364 164.5C364 153.759 359.733 143.457 352.138 135.862C344.543 128.267 334.241 124 323.5 124C312.759 124 302.457 128.267 294.862 135.862C287.267 143.457 283 153.759 283 164.5C283 175.241 287.267 185.543 294.862 193.138C302.457 200.733 312.759 205 323.5 205Z" stroke="#B22828" stroke-width="26" stroke-linejoin="round"/>
<path d="M176.5 375C187.241 375 197.543 370.733 205.138 363.138C212.733 355.543 217 345.241 217 334.5C217 323.759 212.733 313.457 205.138 305.862C197.543 298.267 187.241 294 176.5 294C165.759 294 155.457 298.267 147.862 305.862C140.267 313.457 136 323.759 136 334.5C136 345.241 140.267 355.543 147.862 363.138C155.457 370.733 165.759 375 176.5 375Z" stroke="#B22828" stroke-width="26" stroke-linejoin="round"/>
</svg>
