<svg width="48" height="48" viewBox="0 0 48 48" fill="none" xmlns="http://www.w3.org/2000/svg">
  <rect width="48" height="48" rx="24" fill="#FFE89C" />
  <rect x="19" y="20" width="14" height="13" rx="3" fill="#E4AF00" />
  <rect x="15" y="15" width="15" height="14" rx="2" fill="#E4AF00" />
  <path
    d="M18.0095 31C18.1371 32.6781 19.5392 34 21.25 34H29.25C31.8734 34 34 31.8734 34 29.25V25.936C33.849 26.0082 33.6713 26.0495 33.46 26.0495C33.0119 26.0495 32.7141 25.8627 32.5 25.5874V29.25C32.5 31.0449 31.0449 32.5 29.25 32.5H21.25C20.3684 32.5 19.639 31.8481 19.5177 31H18.0095ZM30 22.226V21.9518C29.8283 22.0181 29.645 22.0513 29.46 22.049C29.1033 22.0479 28.7671 21.9227 28.5 21.7091V26.75C28.5 27.7165 27.7165 28.5 26.75 28.5H17.25C16.2835 28.5 15.5 27.7165 15.5 26.75V17.25C15.5 16.2835 16.2835 15.5 17.25 15.5H20.5H22H24.3428C24.5229 15.2761 24.7655 15.1005 25.05 14.999L26.39 14.559C26.6962 14.4563 26.9715 14.27 27.1832 14.0286C27.0415 14.0097 26.8969 14 26.75 14H17.25C15.4551 14 14 15.4551 14 17.25V26.75C14 28.5449 15.4551 30 17.25 30H26.75C28.5449 30 30 28.5449 30 26.75V22.8665C29.9731 22.7635 29.9591 22.6569 29.96 22.549C29.9595 22.4396 29.9731 22.3311 30 22.226ZM28.0883 18.4123C28.016 18.3189 27.9377 18.2298 27.8539 18.1457C27.5417 17.8325 27.1606 17.5967 26.741 17.4568L25.3632 17.0094C25.257 16.972 25.165 16.9025 25.1 16.8107C25.0349 16.7188 25 16.6091 25 16.4966C25 16.384 25.0349 16.2743 25.1 16.1824C25.165 16.0906 25.257 16.0212 25.3632 15.9837L26.741 15.5363C27.1547 15.3935 27.5299 15.1571 27.837 14.8454C28.1357 14.5422 28.3623 14.176 28.5 13.7737L28.5114 13.7396L28.9592 12.3629C28.9967 12.2568 29.0662 12.1649 29.1581 12.0999C29.25 12.0349 29.3598 12 29.4724 12C29.5851 12 29.6949 12.0349 29.7868 12.0999C29.8787 12.1649 29.9482 12.2568 29.9857 12.3629L30.4335 13.7396C30.5727 14.1582 30.8077 14.5385 31.1198 14.8504C31.432 15.1623 31.8126 15.3971 32.2315 15.5363L33.6093 15.9837L33.6368 15.9906C33.743 16.028 33.835 16.0975 33.9 16.1893C33.9651 16.2812 34 16.3909 34 16.5034C34 16.616 33.9651 16.7257 33.9 16.8176C33.835 16.9094 33.743 16.9788 33.6368 17.0163L32.259 17.4637C31.8402 17.6029 31.4595 17.8377 31.1474 18.1496C30.8353 18.4615 30.6003 18.8418 30.461 19.2604L30.0132 20.6371C30.0092 20.6485 30.0048 20.6598 30 20.6709C29.9605 20.7627 29.8964 20.8421 29.8144 20.9001C29.7224 20.9651 29.6126 21 29.5 21C29.3874 21 29.2776 20.9651 29.1856 20.9001C29.0937 20.8351 29.0242 20.7432 28.9868 20.6371L28.539 19.2604C28.4378 18.9533 28.2851 18.6666 28.0883 18.4123ZM35.7829 22.2132L35.0175 21.9646C34.7848 21.8873 34.5733 21.7568 34.3999 21.5836C34.2265 21.4103 34.0959 21.199 34.0186 20.9665L33.7698 20.2016C33.749 20.1427 33.7104 20.0916 33.6593 20.0555C33.6083 20.0194 33.5473 20 33.4847 20C33.4221 20 33.3611 20.0194 33.31 20.0555C33.259 20.0916 33.2204 20.1427 33.1996 20.2016L32.9508 20.9665C32.875 21.1974 32.7467 21.4076 32.5761 21.5808C32.4055 21.7539 32.1971 21.8853 31.9672 21.9646L31.2018 22.2132C31.1428 22.234 31.0917 22.2725 31.0555 22.3236C31.0194 22.3746 31 22.4356 31 22.4981C31 22.5606 31.0194 22.6216 31.0555 22.6726C31.0917 22.7236 31.1428 22.7622 31.2018 22.783L31.9672 23.0316C32.2003 23.1093 32.412 23.2403 32.5855 23.4143C32.7589 23.5882 32.8893 23.8003 32.9661 24.0335L33.2149 24.7984C33.2357 24.8573 33.2743 24.9084 33.3254 24.9445C33.3764 24.9806 33.4374 25 33.5 25C33.5626 25 33.6236 24.9806 33.6746 24.9445C33.7257 24.9084 33.7643 24.8573 33.7851 24.7984L34.0339 24.0335C34.1113 23.801 34.2418 23.5897 34.4152 23.4164C34.5886 23.2432 34.8001 23.1127 35.0328 23.0354L35.7982 22.7868C35.8572 22.766 35.9083 22.7275 35.9445 22.6764C35.9806 22.6254 36 22.5644 36 22.5019C36 22.4394 35.9806 22.3784 35.9445 22.3274C35.9083 22.2764 35.8572 22.2378 35.7982 22.217L35.7829 22.2132Z"
    fill="#212121" />
</svg>