<svg width="16" height="16" viewBox="0 0 16 16" fill="none" xmlns="http://www.w3.org/2000/svg">
<path d="M7.5 1C5.01472 1 3 3.01472 3 5.5C3 7.06021 3.79401 9.19274 5 10V15H10V10C11.206 9.19274 12 7.06021 12 5.5C12 3.01472 9.98528 1 7.5 1Z" fill="#FCE100"/>
<path d="M7.5 0C8.00521 0 8.49219 0.0651042 8.96094 0.195312C9.42969 0.325521 9.86719 0.510417 10.2734 0.75C10.6849 0.989583 11.0573 1.27604 11.3906 1.60938C11.724 1.94271 12.0104 2.3151 12.25 2.72656C12.4896 3.13281 12.6745 3.57031 12.8047 4.03906C12.9349 4.50781 13 4.99479 13 5.5C13 6.25521 12.8568 6.95573 12.5703 7.60156C12.2839 8.2474 11.875 8.83333 11.3438 9.35938C10.9115 9.78646 10.5781 10.263 10.3438 10.7891C10.1146 11.3151 10 11.8854 10 12.5V14.5C10 14.7083 9.96094 14.9036 9.88281 15.0859C9.80469 15.2682 9.69792 15.4271 9.5625 15.5625C9.42708 15.6979 9.26823 15.8047 9.08594 15.8828C8.90365 15.9609 8.70833 16 8.5 16H6.5C6.29167 16 6.09635 15.9609 5.91406 15.8828C5.73177 15.8047 5.57292 15.6979 5.4375 15.5625C5.30208 15.4271 5.19531 15.2682 5.11719 15.0859C5.03906 14.9036 5 14.7083 5 14.5V12.5C5 11.8854 4.88281 11.3151 4.64844 10.7891C4.41927 10.263 4.08854 9.78646 3.65625 9.35938C3.125 8.83333 2.71615 8.2474 2.42969 7.60156C2.14323 6.95573 2 6.25521 2 5.5C2 4.99479 2.0651 4.50781 2.19531 4.03906C2.32552 3.57031 2.51042 3.13281 2.75 2.72656C2.98958 2.3151 3.27604 1.94271 3.60938 1.60938C3.94271 1.27604 4.3125 0.989583 4.71875 0.75C5.13021 0.510417 5.57031 0.325521 6.03906 0.195312C6.50781 0.0651042 6.99479 0 7.5 0ZM8.5 15C8.63542 15 8.7526 14.9505 8.85156 14.8516C8.95052 14.7526 9 14.6354 9 14.5V13H6V14.5C6 14.6354 6.04948 14.7526 6.14844 14.8516C6.2474 14.9505 6.36458 15 6.5 15H8.5ZM9.02344 12C9.09115 11.3281 9.26302 10.7188 9.53906 10.1719C9.8151 9.625 10.1875 9.11458 10.6562 8.64062C11.0885 8.20312 11.4193 7.72656 11.6484 7.21094C11.8828 6.6901 12 6.11979 12 5.5C12 4.88021 11.8802 4.29688 11.6406 3.75C11.4062 3.20312 11.0859 2.72656 10.6797 2.32031C10.2734 1.91406 9.79688 1.59375 9.25 1.35938C8.70312 1.11979 8.11979 1 7.5 1C6.88021 1 6.29688 1.11979 5.75 1.35938C5.20312 1.59375 4.72656 1.91406 4.32031 2.32031C3.91406 2.72656 3.59115 3.20312 3.35156 3.75C3.11719 4.29688 3 4.88021 3 5.5C3 6.11979 3.11458 6.6901 3.34375 7.21094C3.57812 7.72656 3.91146 8.20312 4.34375 8.64062C4.8125 9.11458 5.1849 9.625 5.46094 10.1719C5.73698 10.7188 5.90885 11.3281 5.97656 12H9.02344Z" fill="#A75A00"/>
</svg>
